<svg xmlns="http://www.w3.org/2000/svg" width="80" height="80">
  <rect x="10" y="0"  width="10" height="10" fill="black" fill-opacity="0.16"/>
  <rect x="50" y="0"  width="10" height="10" fill="black" fill-opacity="0.10"/>
  <rect x="70" y="0"  width="10" height="10" fill="black" fill-opacity="0.14"/>
  <rect x="0"  y="10" width="10" height="10" fill="black" fill-opacity="0.10"/>
  <rect x="30" y="10" width="10" height="10" fill="black" fill-opacity="0.18"/>
  <rect x="60" y="10" width="10" height="10" fill="black" fill-opacity="0.09"/>
  <rect x="20" y="20" width="10" height="10" fill="black" fill-opacity="0.13"/>
  <rect x="50" y="20" width="10" height="10" fill="black" fill-opacity="0.09"/>
  <rect x="70" y="20" width="10" height="10" fill="black" fill-opacity="0.16"/>
  <rect x="10" y="30" width="10" height="10" fill="black" fill-opacity="0.08"/>
  <rect x="40" y="30" width="10" height="10" fill="black" fill-opacity="0.14"/>
  <rect x="0"  y="40" width="10" height="10" fill="black" fill-opacity="0.18"/>
  <rect x="30" y="40" width="10" height="10" fill="black" fill-opacity="0.08"/>
  <rect x="60" y="40" width="10" height="10" fill="black" fill-opacity="0.12"/>
  <rect x="20" y="50" width="10" height="10" fill="black" fill-opacity="0.14"/>
  <rect x="50" y="50" width="10" height="10" fill="black" fill-opacity="0.18"/>
  <rect x="10" y="60" width="10" height="10" fill="black" fill-opacity="0.11"/>
  <rect x="40" y="60" width="10" height="10" fill="black" fill-opacity="0.08"/>
  <rect x="70" y="60" width="10" height="10" fill="black" fill-opacity="0.15"/>
  <rect x="0"  y="70" width="10" height="10" fill="black" fill-opacity="0.18"/>
  <rect x="30" y="70" width="10" height="10" fill="black" fill-opacity="0.10"/>
  <rect x="60" y="70" width="10" height="10" fill="black" fill-opacity="0.08"/>
</svg>
